<svg xmlns="http://www.w3.org/2000/svg" width="1024" height="1024" preserveAspectRatio="none" style="display:block" viewBox="0 0 2048 2048"><defs><linearGradient id="a" x1="425.197" x2="375.005" y1="1358.12" y2="1336.09" gradientUnits="userSpaceOnUse"><stop class="stop0" offset="0" stop-color="#f9e5e3"/><stop class="stop1" offset="1" stop-color="#fffef6"/></linearGradient></defs><path fill="#fff" d="M0 0h2048v2048H0z"/><path fill="#2d2a26" d="M778.433 1485.06a252 252 0 0 1-38.359-49.1c-66.533-111.15-42.652-256.25 10.574-367.74 47.63-99.769 130.479-190.225 229.469-240.711a476 476 0 0 1 60.333-25.732c15.04-5.087 35.97-7.623 49.26-15.75 28.98-17.718 38.09-67.161 45.75-98.145 3.23-16.799 5.13-33.457 10.74-49.689 6.39-18.484 18.48-32.798 27.25-49.848 2-5.376 2.5-11.134 4.07-16.625 15.13-53.039 47.21-103.66 91.77-136.621 3.19-2.361 6.11-2.389 9.67-1.427 6.09 6.203 25.61 62.137 30.04 74.2 23.06-25.835 50.28-43.742 81.56-59.183 3.9-1.922 7.81-2.772 11.91-1.082 3.77 3.828 14.3 78.061 15.95 89.651 33.1 18.63 52.78 39.481 65.15 75.853 3.73 10.947 6.75 23.509 11.56 33.865 6.61 3.97 26.55 9.893 26.97 17.989.52 10.248-.77 22.834-1.29 33.189-1.96 39.131-24.67 72.031-61.46 86.165-17.95 7.221-43.68 9.709-54.7 27.464-14.34 23.1 4.95 60.259 9.8 84.845 3.62 18.365 6.7 34.259 6.79 52.888a328.2 328.2 0 0 1-17.44 109.854c-4.27 12.58-11.47 27.16-14.67 39.27-.62 2.33-.19 26.03-.2 30.67.38 79.81 9.97 159.32 28.55 236.94 68.18-13.51 121.63-43.9 166.46-97.71 19.08-24.23 31.12-52.13 62.1-63.46 30.54-11.17 66.54 1.55 76.55 34.5 11.13 36.68-21.17 75.18-42.66 101.85-51.98 64.48-120 95.43-196.31 121.11 17.02 16.27 39.28 47.3 17.25 70.08-11.52 11.91-29.17 10.83-44.59 10.27-20.36 25.72-58.6 10.87-87.08 14.32-52.4 6.35-64.96-29.57-89.02-67.08-26.35-.25-52.69-.3-79.03-.14 9.95 14.31 19.04 33.57 9.23 50.54-11.82 20.45-37.93 15.53-57.76 15.77-13.9.17-28.12-.11-42.11-.12l-102.29-.07c-20.284-.02-43.547.53-63.522-.78a320 320 0 0 1-51.756-7.98c-35.204-8.28-59.848-21.52-89.433-40.69 2.146 25.93.311 58.83.049 84.98-.254 25.5-53.788 32.6-72.574 33.16-30.835.91-72.113.65-97.586-20.28-5.057-4.33-7.409-10.95-7.369-17.47.114-18.28-.037-36.43-.531-54.7-21.437 19.18-40.707 29.84-70.346 30.39-47.406.88-94.907-.77-142.334.14-6.452.13-15.659-.38-21.976-1.9-78.033-18.89-36.137-100.52-14.18-147.12 14.672-30.96 24.441-58.15 49.565-82.64 1.457-1.37 1.839-1.93 3.105-3.49l-1.072-.71-5.053 1.16c-34.633 11.93-45.048 24.36-56.88 59.32 8.591 12.28 6 16.76-7.71 21.34-2.848 6.27-5.456 21.26-9.793 25.92-7.627-2.99.421-18.43 2.146-25.09-4.177 5.16-11.921 16.37-17.766 17.59-2.544-1.68-1.63-.57-2.723-3.54 3.947-7.45 11.501-12.66 16.866-20.99-6.186 3.34-21.33 13.5-26.867 12.31l-1.206-2.08c2.357-7.6 18.194-9.77 21.965-15.97.146-.24.042-3.52.045-3.74 2.445-5.02 2.931-4.05 6.672-7.87 12.419-55.11 46.587-77.52 101.748-81.71-14.452-18.36-64.266-68.45-37.296-87.53 11.135-7.88 23.551-1.92 35.367-.28 15.066.94 30.045-14.27 45.625-14.45 24.234-.28 30.94 15.04 56.719 9.25 25.685-5.78 42.551 21.39 27.864 43.21-11.48 17.58-28.111 32.98-40.635 50.59 50.661 2.22 88.073 28.29 99.321 78.69 9.211 8.92 4.758 7.59 9.676 16.95 1.392 2.65 15.551 7.51 17.479 14.49-4.916 5.83-16.672-6.77-24.194-9.98l.797 1.3c3.775 6.07 11.356 14.08 13.2 18.22-1.066 2.89-.131 1.81-3.032 3.21-7.412-1.36-14.069-15.67-18.232-21.85 1.903 6.96 6.215 20.09 3.642 26.52-5.175-1.27-8.386-18.62-9.951-23.64-12.045-5.63-12.634-8.2-7.96-20.33-9.568-36.74-25.191-50.74-61.998-60.61 22.251 19.74 32.75 49.08 44.666 75.74 10.512 23.51 30.963 56.67 32.357 81.83q.346 7.26.51 14.52c35.723-23.69 102.573-23.35 141.995-10.31 3.401 1.18 8.352 3.58 11.776 5.1z"/><path fill="#f4a259" d="M1272.29 441.881c-7.07 38.264-12.08 83.283-12.24 122.206 19.22.407 44.54-2.587 56-21.206 3.93-6.373 2.23-10.441.28-17.133 65.55-2.782 132.48 15.527 158.51 82.972 5.13 13.296 9.04 30.586 15.17 42.969 4.89 18.595 7.04 20.709 22.94 31.589 1.21 12.106-.65 24.688-8.9 34.199a24.6 24.6 0 0 1-17.59 8.612c-6.48.263-8.12-4.418-15.2-3.275l-1.06 1.227c2.85 10.595 20.24 10.329 28.14 6.084 3.9-2.096 6.88-4.14 10.43-6.711-8.86 24.877-21.73 39.89-45.7 51.718-21.81 10.76-59.09 12.769-67.87 40.568-9.2 29.096 10.81 65.962 15.81 97.253a297.7 297.7 0 0 1 .34 88.007c-8.49 54.76-30.25 100.95-58.65 147.89-2.51 4.15-5.56 9.17-7.78 13.41l-2.78 3.77-.88-.71.42-4.9c4.14-29.57 8.63-59.08 13.49-88.54 1.87-11.6 9.93-44.74 3.98-53.34l-.91-.53c-2.32 1.69-2.73 2.99-3.08 6.04-6.88 59.56-20.79 118.29-23.75 178.34-3.75 76.14 11.76 158.2 38.82 229.24a182.67 182.67 0 0 0-90.16 43.6c-56.92-96.22-117.25-252.01-117.12-365.1.01-10.17 1.99-27.65 4.32-37.84 1.49-6.47 6.72-16.32 7.53-23.62-2.03-2.11-.85-1.21-4.43-1.82-2.06 1.16-3.3 2.6-4.08 4.82-32.51 93.4 21.61 238.41 55.84 322.79-7.71 10.79-17.07 30.63-24.31 42.62-9.8 16.21-20.06 30.9-30.43 46.68-33.24-13.5-75.02-10.42-110.09-6.48 9.14-8.92 18.29-16.75 27.2-26.2a272.9 272.9 0 0 0 60.48-101.53c28.88-86.7 1.56-184.9-92.01-214.5a137.67 137.67 0 0 0-105.207 9.08c-7.65 4.06-32.161 19.01-34.635 27.13 1.923 2.78.709 1.75 3.796 3.18 3.324-1.23 15.048-12.24 18.956-15.21 26.133-19.87 61.137-26.82 93.19-22.71a136.03 136.03 0 0 1 91.01 53.31c68.25 89.37 8.2 225.12-71.77 284.81-8.96 6.69-35.99 4.57-36.89 13.59 3.66 2.08 2.24 1.51 7 1.2 6.64 28.45 12.1 50.21 11.69 79.83-34.301-.95-66.448 1.51-100.919-2.26-159.514-17.46-238.824-160.14-220.618-309.99 20.871-171.79 129.105-333.847 286.231-409.166a348 348 0 0 1 48.206-19.169c28.39-9.122 53.72-10.111 71.18-38.104 21.61-34.655 26.42-78.758 34.94-117.849 2.97-10.248 9.16-29.508 15.97-37.698 16.69-20.087 16.06-35.582 24.44-58.953a247.37 247.37 0 0 1 82.75-114.19"/><path fill="#eee5d8" d="M1490.01 651.689c4.89 18.595 7.04 20.709 22.94 31.589 1.21 12.106-.65 24.688-8.9 34.199a24.6 24.6 0 0 1-17.59 8.612c-6.48.263-8.12-4.418-15.2-3.275l-1.06 1.227c2.85 10.595 20.24 10.329 28.14 6.084 3.9-2.096 6.88-4.14 10.43-6.711-8.86 24.877-21.73 39.89-45.7 51.718-21.81 10.76-59.09 12.769-67.87 40.568-9.2 29.096 10.81 65.962 15.81 97.253a297.7 297.7 0 0 1 .34 88.007c-112.36-72.664-130.54-232.622-2.87-301.35 30.96-16.664 54.15-23.825 81.53-47.921"/><path fill="#f4a259" d="M458.799 1312.1c22.662-.29 45.327-.09 67.98.58 17.661 16.35 34.012 22.64 45.494 46.24a4733 4733 0 0 1 29.072 60.9c8.282 17.65 17.89 35.06 23.101 53.94 3.7 13.73 2.086 31.91 1.349 46.04-28.838 37.69-58.511 36.6-102.545 36.23l-75.158-.08c-27.767-.03-66.35 4.6-86.241-18.85-24.179-28.52 3.796-80.85 16.325-110.62 10.919-25.94 26.491-57.5 42.693-79.87 7.205-9.95 27.939-26.28 37.93-34.51"/><path fill="#2d2a26" d="M468.92 1330.31c5.251 1.39 6.641 1.63 4.021 6.68-3.075 5.93-4.81 12.39-7.207 18.61-4.72 12.26-9.101 24.67-13.765 36.94-.486-.27-4.95-2.44-4.751-3.19 5.166-19.67 13.672-40.33 21.702-59.04m28.755-.99c.925.07 4.376.24 4.717.84 3.232 5.7 7.611 37.96 7.371 42.51-8.84-.97-6.671-5.12-8.583-14.68l-1.391-8.48c-1.213-6.74-2.834-13.38-2.114-20.19"/><path fill="#f4a259" d="M1418.83 1372.77c62.96-12.48 104.26-33.95 150.95-78.06 20.58 14.9 36.85 24.06 51.83 46.69 5.76 8.7 10.02 32.24 13.49 35.37-41.52 38.46-104.76 63.01-157.51 81.02-16.02-9.02-24.69-12.52-41.67-18.23-5.74-22.29-12.25-44.28-17.09-66.79"/><path fill="#f4a259" d="m1378.6 1116 1.58-2.68 1.06.31c.48 4.28.48 6.64.4 10.95.57 98.84 14.5 197.15 41.44 292.25 1.63 5.87 5.71 26.82 8.58 29.92l2.71.59c-6.29.9-25.95 11.11-31.15 14.93-6.31-.96-11.62-3.02-17.42-5.52-7.39-18.82-16.22-47.35-22.39-67a557.9 557.9 0 0 1-25.54-175.99c.65-35.36 1.69-30.36 19.43-59.88a654 654 0 0 0 21.3-37.88"/><path fill="#eee5d8" d="M1018.42 1469.43c51.63-10.02 141.98-22.63 177.51 25.16 18.14 24.39 17.86 51.45-17.35 55.82.11-8.31 1.3-36.89-11.21-36.66l-1.9 1.44c-.52 4.22 4.35 8.65 5.45 12.8 1.63 6.13 1.2 15.02 1.06 21.44-44.87.8-96.67.48-141.87-.17.41-29.62-5.05-51.38-11.69-79.83m551.36-174.72c9.79-9.72 18.01-18.6 26.28-30.1 20.68-28.75 34.07-55.91 74.02-56.47 13.24-.18 25.42 5.3 34.93 14.47 8.5 8.19 13.93 23.7 12.9 35.47-3.55 40.47-50.57 89.71-80.07 116.35-.91.78-1.82 1.56-2.74 2.34-3.47-3.13-7.73-26.67-13.49-35.37-14.98-22.63-31.25-31.79-51.83-46.69m-199.55 136.92c2.95 8.7 7.9 24.54 11.95 32.22 26.96 6.6 49.11 17.42 64.38 41.82 8.99 14.36 10.14 31.68-5.37 41.87-.86.56-1.59.65-2.51.85-3.49-3.47 3.58-33.08-12.1-34.03-.81 1.31-1.76 2.6-.95 4.17 6.76 13.06 8.57 16.2 3.35 31.89-9.55.77-16.82.43-26.33.09 1.11-10.19.77-31.53-10.5-36.15l-2.59.14c-2.69 7.23 15.21 26.92 5.24 35.4-16.36 2.66-55.42 3.02-68.01-7.5-16.93-14.14-35.58-47.78-46.72-67.17a182.67 182.67 0 0 1 90.16-43.6"/><path fill="#f4a259" d="M487.399 1209.18c24.206-2.26 22.748 5.57 43.8 9.43 13.717 1.24 26.001-6.49 38.58 2.89 7.44 5.54 7.782 18.3 2.875 25.78-13.307 20.29-30.795 40.15-46.743 58.66l-29.161.04c-11.853.15-23.707.14-35.559-.04-15.249-16.67-39.887-46.51-49.388-67.87-5.505-12.38 6.205-17.1 16.554-19.73 30.715 9.88 31.679 1.93 59.042-9.16"/><path fill="#2d2a26" d="M470.146 1243.64c7.322 4.77 5.75 33.92 8.731 42.87.941 2.82.615 5.42-1.401 7.63l-.918 1.06c-5.14-3.57-4.192-4.3-4.878-11.19-1.215-12.2-3.983-24.36-4.864-36.51-.099-1.36 2.576-3.22 3.33-3.86m43.516 10.72c7.603 1.67 6.047 2.68 3.623 10.03-3.419 10.36-5.942 21.22-10.685 31.06-.68-.3-1.365-.59-2.056-.86-1.218-.47-2.47-.81-3.175-2.04.007-.8 11.154-35 12.293-38.19"/><path fill="#f4a259" d="M702.587 1487.43c21.743-1.9 86.955.65 94.339 26.78 5.454 19.29-55.343 26.32-65.774 26.98-22.092 1.71-76.831-1.23-92.491-17.34-27.415-28.21 52.206-35.53 63.926-36.42"/><path fill="#2d2a26" d="M704.771 1491.43c72.112-7.32 130.856 36.11 21.097 46.42-18.342.44-59.275-1.31-73.785-11.89-36.879-26.88 42.193-33.68 52.688-34.53"/><path fill="#f4a259" d="M706.518 1497.43c13.85-.88 67.267-.23 71.002 17.65-2.739 13.07-42.513 15.65-53.489 16.05-14.788.1-68.34-.37-73.495-16.46 3.192-13.69 44.448-16.45 55.982-17.24m518.142-114.83c3.34 3.13 13.24 25.82 15.8 31.23 11.24 23.72 23.69 46.2 36.16 69.25-16.7.15-33.41.17-50.12.06-10.32-.03-20.66.13-30.96-.02-10.3-8.5-10.97-9.12-22.29-16.44 9.05-13.22 18.01-26.06 26.52-39.65 9.05-14.44 16.01-30.09 24.89-44.43"/><path fill="#eee5d8" d="M1434.37 1447.34c66.52 13.04 102.12 95.13 24.47 88.82 1.77-20.7-1.08-29.1-15.06-45.55-12.4-14.6-23.51-20.7-40.56-28.34 5.2-3.82 24.86-14.03 31.15-14.93"/><path fill="#f4a259" d="M796.791 1579.28c.697 7.29 1.981 10.94-1.434 17.04-25.331 30.66-137.826 30.74-162.342-2.99l.042-13.81c6.288 3.97 13.244 8 20.328 10.29 36.484 11.85 113.982 15.52 143.406-10.53m-164.667-50.95c5.955 3.31 11.512 7.18 17.985 9.43 41.946 14.59 110.036 17.01 147.26-9.15-.113 6.04.129 10.64-1.456 16.49-22.592 30.79-135.71 28.73-163.226-.94-.58-5.18-.499-10.6-.563-15.83"/><path fill="#f4a259" d="M632.575 1553.87c38.161 26.34 126.304 27.45 164.646.15-.106 4.49.506 13.31-1.476 16.63-1.279 1.39-4.22 4.63-5.561 5.57-31.754 22.18-133.4 23.61-157.501-7.75-.457-5.97-.611-8.45-.108-14.6"/><path fill="#eee5d8" d="M1278.35 447.754c6.64 8.055 26.58 72.473 33.78 88.08-6.2 9.378-7.33 10.416-17.25 16.172-10.92 4.491-16.5 4.912-28.13 5.286.23-28.979 5.48-81.209 11.6-109.538"/><path fill="#f4a259" d="M1392 456.123c1.6 2.204-2.68 8.839-3.87 11.149-8.66 16.861-13.07 35.154-19.17 52.856l-.31.881c-16.64-2.858-37.63-2.335-54.67-2.333-7.85-1 3.2-10.456 4.89-12.088 19.79-19.08 47.79-39.674 73.13-50.465"/><path fill="#eee5d8" d="M1398.35 461.698c3.31 3.675 11.45 63.376 12.07 72.012a480 480 0 0 0-12.86-4.938c-.75-.279-1.49-.559-2.23-.838-6.8-2.212-12.6-3.949-19.61-5.63 4.5-16.066 13.68-47.025 22.63-60.606"/><path fill="#fff" d="M535.264 1310.99c42.158-1.01 92.09 30.16 94.034 75.73-1.095-.31-3.498-.82-3.949-1.93-4.105-10.06-6.61-18.76-12.363-28.28-12.081-20-32.956-30.86-55.003-36.26-10.266-2.51-15.113-2.01-22.719-9.26"/><path fill="url(#a)" d="M442.092 1311.36c1.875-.11 4.957-.83 5.827.95-1.717 2.86-8.045 3.92-10.919 4.56-43.994 9.77-62.912 26.18-76.267 67.92-4.629 5.7-4.721-3.06-3.984-6.31 9.455-41.61 45.54-62.12 85.343-67.12"/><path fill="#fff" d="M351.409 1391.66c9.689-.08 15.07 1.44 10.139 11.01-11.705-1.05-15.718-1.35-10.139-11.01m275.104-.77c8.757.38 16.291 2.49 6.267 10.6-9.676.98-13.227-2.61-6.267-10.6"/></svg>