<svg xmlns="http://www.w3.org/2000/svg" width="1024" height="1024" preserveAspectRatio="none" style="display:block" viewBox="0 0 2048 2048"><path fill="#fff" d="M0 0h2048v2048H0z"/><path fill="#2d2a26" d="M1106.48 502.253c7.33-14.93 13.5-31.341 19.79-46.827a4910 4910 0 0 0 31.02-77.54c26.57-67.465 55.67-134.066 81.71-201.755 1.72-4.485 3.11-9.79 5.93-13.592l1.81-.199c4.3 2.385 16.66 36.761 19.62 44.078a7446 7446 0 0 1 35.58 88.653l84.6 207.567c25.02-2.693 39.89-1.429 64.38 2.546 39.78 9.671 80.37 29.75 107.31 61.283 42.93 48.041 27.18 85.869 3.04 138.114-16.52 35.747-34.53 73.446-81.27 65.312-6.41 62.306-23.67 108.744-65.79 156.399 75.21 56.863 156.1 147.738 206.69 226.618 12.44 19.4 30.94 51.16 39.01 72.4 21.2 11.33 32.05 19.48 48.98 36.67 18.45-19.99 28.03-48.27 26.73-75.58-1.07-22.58-9.92-45.2-25.11-62.26-5-5.67-14.34-12.01-18.55-18.01-8.72-12.46-9.03-33.73 2.41-44.88 24.85-24.2 49.45-4.6 67.98 14.06 34.65 34.91 54.54 78.37 54.64 127.72.08 43.74-18.91 93.65-50.42 124.66a140 140 0 0 1-17.14 14.19c13.17 56.6 2.1 117.19-29.93 165.02-11.91 17.77-23.2 37.09-35.36 54.86 1.55 31.61-3.35 54.31-25.2 78.69a96.43 96.43 0 0 1-66.51 31.67c-26.62 1.39-54.8-1.02-81.62-.12-11.19.38-24.93.31-35.81-2.31a64 64 0 0 1-28.43-14.8c-8.05-7.28-13.32-15.93-17.46-25.89-4.63-.15-9.29-.39-13.91-.17-17.93 21.32-40.86 42.06-69.99 42.79-18.47.46-83.48 1.98-98.63-1.53a63.1 63.1 0 0 1-26.57-13.29c-9.05-7.61-15.07-16.77-18.95-27.92l-20.66.14c-30.65 45.46-63.82 43.16-113.07 43.02l-75.785-.18c-12.011.05-59.47.93-68.712-.79-28.114-1.3-39.673-24.75-47.02-26.49-23.608 7.27-212.282 9.25-240.877 5.68-102.663-2.74-308.73-27.49-387.234-94.07a76 76 0 0 1-1.928-1.96c-7.178-7.53-14.418-15.92-17.323-26.14-4.263-14.99-1.931-94.88-1.479-115.71l-.113-2.63c-1.936-49-.24-98.4-.202-147.47.017-21.73-2.865-66.38 1.501-86.06 1.834-8.26 7.624-16.37 13.346-22.48 76.643-81.82 336.905-103.58 447.759-106.74-1.185-14.09-.348-37.72-.325-52.536l.25-97.78c-.396-15.72-2.547-40.124 1.274-54.51 3.848-14.485 32.576-13.794 42.49-17.414-.392-6.204-.253-11.237-.095-17.437-2.399-1.722-15.126-3.774-19.167-6.162-6.113-3.613-12.52-10.725-14.424-17.319-8.815-30.531 23.584-51.862 27.167-80.332 1.606-12.629-.174-18.548-3.98-29.646 18.142 13.517 33.699 27.528 42.59 48.83a77.02 77.02 0 0 1 .069 58.997c-6.03 14.211-14.873 19.527-28.238 25.038l.094 18.795c14.057 1.775 32.999 3.066 43.072 13.711 2.691 7.108 2.832 16.512 2.422 24.06-2.071 38.101 2.139 79.893.04 117.607q-.337 33.492.272 66.988c69.421 2.6 138.583 9.93 207.007 21.93 7.31 1.31 31.739 5.49 37.849 8.06-.07-6.69 3.83-22 5.44-29.37 10.15-46.2 24.07-78.465 46.78-119.528-42.03-43.557-64.77-98.661-67.91-159.101-32.487 7.454-57.091-12.319-71.671-39.608-14.773-27.814-37.905-74.785-35.93-105.944 5.196-61.778 74.64-105.29 129.611-117.736 26.16-5.921 46.58-5.43 72.53-4.34"/><path fill="#f4a259" d="M231.089 1207.9c2.6 3.81 6.197 8.12 9.102 11.79 83.495 84.99 325.415 101.38 440.317 102.35 57.361.91 114.73-1.12 171.883-6.07 18.853-1.45 37.683-3.17 56.485-5.17 9.279-1.02 29.254-3.86 37.806-3.91l2.331 2.7c-21.668 44.07-30.435 81.61-29.886 131.03-.179 4.31.128 13.35-1.842 16.35l-.93 1.24c-5.506 2.26-28.823 3.85-36.118 4.48a1900 1900 0 0 1-166.129 8.3c-114.415.31-235.106-8.89-346.293-37.16-44.167-11.23-114.721-31.3-135.152-75.2-3.058-6.57-1.997-50.65-1.957-61z"/><path fill="#080201" d="m946.682 1306.89 2.331 2.7c-21.668 44.07-30.435 81.61-29.886 131.03-.179 4.31.128 13.35-1.842 16.35-1.568-6.04-1.698-18.84-1.692-25.61a257.26 257.26 0 0 1 31.089-124.47"/><path fill="#f4a259" d="m231.171 1400.41 1.094.71c5.381 3.61 10.62 9.94 15.983 13.74 40.593 28.77 95.218 44.03 143.443 54.36 126.52 27.09 261.69 34.93 390.956 30.28 29.727-1.3 59.438-2.96 89.125-5 13.084-1.02 38.209-4.21 50.154-4.12 5.335 23.13 11.509 37.82 19.672 59.97-23.192 1.61-40.584-.5-58.466 19.76a59.28 59.28 0 0 0-14.218 44.34c.885 10.14 3.303 16.77 7.007 26.08l-.108 4.05c-23.608 7.27-212.282 9.25-240.877 5.68-102.663-2.74-308.73-27.49-387.234-94.07l2.612-3.15c-1.039-1-2.059-2.01-3.06-3.04-6.424-6.65-12.745-14.18-15.182-23.27-4.444-16.59-1.431-103.42-.901-126.32"/><path fill="#080201" d="M250.314 1553.04c77.282 68.98 292.554 89.06 392.274 93.73l-2.705 1.34-.255 1.34-4.692.81c-102.663-2.74-308.73-27.49-387.234-94.07z"/><path fill="#2d2a26" d="M642.588 1646.77c63.914 1.52 127.608 2.12 191.431-2.36 14.009-.99 27.998-1.85 41.902-3.88l-.108 4.05c-23.608 7.27-212.282 9.25-240.877 5.68l4.692-.81.255-1.34z"/><path fill="#f4a259" d="M988.829 1251.55c8.509 76.79 10.573 156.36 18.631 233.37 2.28 21.73 3.76 43.94 5.02 65.77-10.68-.37-56.619-1.29-65.581.18l-2.028-.89c-2.3-9.89-10.25-28.1-13.539-39.28-7.379-25.07-9.795-44.35-12.205-70.08-.549-49.42 8.218-86.96 29.886-131.03 10.026-17.75 25.762-43.17 39.816-58.04"/><path fill="#f4a259" d="m941.598 1550.35 3.273-.37 2.028.89c15.143.92 36.864-.6 50.245.74-2.094 2.05-1.494 1.23-5.031 2.17l.06 1.64c-2.302 1.11-3.272 1.78-5.793 2.19-5.031 2.83-10.589 5.67-15.075 9.26-34.845 27.87-30.206 78.36 7.583 100.11-12.536.46-26.975.39-39.151 1.13 5.311 1.13 10.476 1.1 15.882 1.27-11.141.41-21.702 1.1-32.786 1.69-28.114-1.3-39.673-24.75-47.02-26.49l.108-4.05c-3.704-9.31-6.122-15.94-7.007-26.08a59.28 59.28 0 0 1 14.218-44.34c17.882-20.26 35.274-18.15 58.466-19.76"/><path fill="#080201" d="m941.598 1550.35 3.273-.37 2.028.89c15.143.92 36.864-.6 50.245.74-2.094 2.05-1.494 1.23-5.031 2.17-15.456.72-37.042-.54-51.077 1.06-34.556-3.16-65.531 12.2-68.645 50.14a58.75 58.75 0 0 0 13.826 42.61c14.373 16.87 32.62 20.23 53.52 20.52 5.311 1.13 10.476 1.1 15.882 1.27-11.141.41-21.702 1.1-32.786 1.69-28.114-1.3-39.673-24.75-47.02-26.49l.108-4.05c-3.704-9.31-6.122-15.94-7.007-26.08a59.28 59.28 0 0 1 14.218-44.34c17.882-20.26 35.274-18.15 58.466-19.76"/><path fill="#f4a259" d="M1416.89 933.253c77.34 59.468 202.12 198.227 237.2 289.067-111.16-43.02-232.22 27.74-228.51 148.34.54 17.64-.13 36.35-.17 54.09l-.04 148.49c-.24 26.73-9.3 51.96-28.77 70.59-25.3 24.51-55.28 25.6-88.46 24.11-32.69-1.47-64.78 8.15-90.13-18.78a58.34 58.34 0 0 1-15.66-42.69 55.35 55.35 0 0 1 18.96-38.75c11.98-10.54 23.34-13.54 38.68-12.75-.08-9.43.01-19.01-.84-28.39l-.11 1.18c-.7 8.2.5 16.54-.69 23.78l-1.21.82-1.81-.94c-4.1-5.08-7.42-24.72-9.59-31.67-7.33-23.46-47.1-197.39-52.88-200.78-3.04 4.85-1.01 54.62-1.02 64.83l-.28 139.52c.03 17.28 1.28 50.11-.74 66.07a81.5 81.5 0 0 1-7.47 25.03c-28.28 59.73-78.03 54.56-133.72 53.44-15.74-.31-28.9.7-43.48-6.58a55 55 0 0 1-28.103-32.43 58.97 58.97 0 0 1 3.705-45.18c9.013-17.1 22.258-24.21 39.668-29.74l.18-221.62c-.2-119.62-8.93-240.63 37.79-353.914 2.9-7.017 6.04-13.324 9.7-19.955 13.94 20.312 38.86 40.781 60.52 52.299 102.72 54.59 229.71 25.85 287.28-77.487"/><path fill="#080201" d="M1255.33 1551.42c1.33-5.13.62-42.63.6-50.94l.1-131.4c.02-19.64-.1-40.13.07-59.84.02-2.5.52-2.43 2.07-4.18l1.06.67c1.24 5.65.49 50.35.47 60.02l-.55 160.83-.11 1.18c-.7 8.2.5 16.54-.69 23.78l-1.21.82z"/><path fill="#f4a259" d="M1193.85 558.476a6622 6622 0 0 1 127.81-58.723c16.02-7.111 32.84-16.394 49.12-22.486 4.47 9.192 9.22 21.621 13.63 31.383l2.6-2.339 1.29.679c1.56 4.41 3.09 7.347 2.63 11.947l-1.86 3.129-2.07 2.372c16.44 20.369 29.2 39.349 35.91 65.173 14.23 54.739-16.89 150.361 53.18 178.473-2.09 17.066-3.93 33.15-8.25 49.887-29.44 114.264-132.14 190.709-251.42 176.024a223.7 223.7 0 0 1-149.44-85.657c-29.4-37.66-50.11-92.477-51-140.328 40.57-23.6 47.38-60.027 46.29-104.351-1.41-57.375 1.77-94.662 40.53-139.458 21.37 17.887 51.12 29.958 78.15 35.921 5.87-.157 9.52 1.418 12.9-1.646"/><path fill="#f4a259" d="M1193.85 558.476a6622 6622 0 0 1 127.81-58.723c16.02-7.111 32.84-16.394 49.12-22.486 4.47 9.192 9.22 21.621 13.63 31.383l3.56 8.115c-37.59 35.158-99.59 48.627-149.64 46.713-11.73-.448-33.29-1.974-44.48-5.002"/><path fill="#080201" d="m1384.41 508.65 2.6-2.339 1.29.679c1.56 4.41 3.09 7.347 2.63 11.947l-1.86 3.129-2.07 2.372c-8.76 6.139-17.3 12.465-26.92 17.249-54.1 26.907-120.41 31.498-179.13 18.435 5.87-.157 9.52 1.418 12.9-1.646 11.19 3.028 32.75 4.554 44.48 5.002 50.05 1.914 112.05-11.555 149.64-46.713z"/><path fill="#2d2a26" d="M1241.29 846c-13.64-1.634-23.88-3.358-36.05-8.846-17.46-7.873-36.74-29.401-32.93-49.469 7.85-37.815 55-51.798 88.67-45.915 29.65 5.182 60.9 25.172 54.44 59.45-5.93 31.462-43.88 41.539-70.37 45.85-.05 6.521.06 13.834-.21 20.28-.59-5.494.2-18.052-1.92-21.464zm92.44-192.773a28.7 28.7 0 0 1 27.56 8.75 28.695 28.695 0 0 1-15.74 47.413c-15.4 3.033-30.39-6.881-33.62-22.247-3.24-15.367 6.48-30.48 21.8-33.916m-192.48.005a28.55 28.55 0 0 1 27.04 9.878 28.55 28.55 0 0 1 4.7 28.406 28.55 28.55 0 0 1-22.43 18.054c-15.43 2.324-29.87-8.178-32.42-23.579-2.54-15.401 7.75-29.992 23.11-32.759"/><path fill="#080201" d="M1244.14 909.579c-.83.552-1.67 1.091-2.51 1.616-40.91 25.312-96.94-2.446-118.21-40.377-3.47-6.198-21.67-40.042-13.08-44.321 1.92 2.692 4.18 15.799 6 21.136 2.45 7.129 5.67 13.97 9.6 20.402 23.32 38.399 73.81 64.583 115.67 39.244-1.03-16.062-.85-45.092-.32-61.279l1.63-.114c2.12 3.412 1.33 15.97 1.92 21.464l.29 38.627c59.17 32.765 123.72-13.045 135.3-74.517.44-2.326.98-4.092 2.99-5.207.57.465 1.72 1.062 1.63 1.984-6.58 64.294-84.31 117.149-140.91 81.342"/><path fill="#eee5d8" d="M243.779 1217.78c-6.825-8.48-12.854-17.69-13.318-28.96-.539-13.09 6.739-24.62 15.48-33.72 75.252-78.42 336.863-101.52 443.372-103.96-1.365 30.91-.571 79.87.697 112.2.509 13.01 37.892 16.33 47.027 15.5 53.033-1.81 45.282-14.91 45.353-56.35l.356-70.41c56.892.86 121.874 9.11 178.242 16.92 15.174 2.1 50.862 8.01 65.262 12.59-6.85 49.37-9.96 84.92-9.28 135.98-34.439 33.59-43.607 42.96-69.081 85.09-18.173 1.46-36.32 4.07-54.492 5.88a1993 1993 0 0 1-103.878 7.57c-133.905 5.9-274.697.39-405.141-31.74-43.411-10.7-110.317-32.91-140.599-66.59"/><path fill="#f4a259" d="M1585.69 1214.42c31.42-2.82 66.29 8.22 91.98 26.16a171.34 171.34 0 0 1 69.9 110.96c15.04 85.29-20.74 142.16-67.58 208.55.51 5 .75 10.02.71 15.04-.22 26.04-11.36 49.3-29.75 67.44-31.74 31.32-69.45 25.72-110.45 25.43-27.75.12-71.98 4.89-91.07-15.91-37.9-41.32-11.85-97.12 43.68-98.23-25.84-41.38-54.98-91.55-59.8-140.46-9.42-95.63 52.5-190.07 152.38-198.98m-515.72-709.002c8.22-1.071 26.69.324 35.55.794-6.47 14.996-7.86 18.974-18.97 32.344-10.23 12.294-17.67 29.501-22.39 44.868-16.18 52.735 10.27 116.295-26.62 162.678-22.23 26.944-50.703 28.655-76.679 5.429-21.871-22.239-48.621-85.014-52.362-115.459-5.884-47.876 44.06-91.782 82.817-110.125 27.954-13.232 48.624-17.731 78.654-20.529m318.33 1.572a160.7 160.7 0 0 1 60.86 2.331c39.04 7.87 76.55 29.272 104.17 57.846 20.83 23.803 35.14 51.819 24.47 83.971-10.82 32.582-23.92 65.57-43.87 93.833-18.6 26.338-51.46 29.943-75.18 7.638-42.14-40.622-19.75-104.58-30.09-155.571-6.13-30.229-19.01-52.419-39.59-74.972l1.86-3.129c.46-4.6-1.07-7.537-2.63-11.947"/><path fill="#f4a259" d="M1716.52 1054.28c20.53-1.43 37.29 18.01 50.43 31.87 65.05 68.64 59.64 182.57-10.71 245.65l-7.58 6.54c-9.14-31.57-16.69-47.94-37.41-73.33 35.99-33.92 37.23-100.61 7.03-137.85-9.45-11.65-25.12-20.74-28.14-35.69a31.5 31.5 0 0 1 4.95-24.51c5.81-8.28 11.91-11.24 21.43-12.68"/><path fill="#eee5d8" d="M1341.99 408.17c3.06 4.064 24.24 57.031 27.47 64.949-60.02 27.365-124 55.211-182.9 84.466-14.21-3.503-25.25-6.577-38.81-12.025-9.29-3.534-39.51-16.532-41.79-26.581 3.3-4.755 66.59-32.551 77.61-37.705a17290 17290 0 0 1 158.42-73.104m-46.38-117.067c4.93 7.013 22.57 55.153 26.55 65.778-19.15 9.223-39.42 17.896-58.8 26.861a7364 7364 0 0 1-106.38 49.221l-20.36 9.186c11.55-30.558 25.43-66.248 38.57-95.976 19.64-7.89 39.15-17.491 58.42-26.424 20.55-9.529 41.74-18.618 62-28.646"/><path fill="#f4a259" d="m1322.48 360.844 1.86.74c6.26 13.166 11.67 28.508 16.48 42.319-28.53 14.766-63.72 28.782-93.28 42.722-41.5 19.566-84.3 40.512-126.28 58.684l-13.73 5.572c8.55-18.721 19.01-47.083 27.11-63.235l124.1-57.291c20.99-9.714 43.16-19.166 63.74-29.511m-46.38-115.818c3.13 2.619 15.68 35.988 18.26 42.468-33.89 14.798-68.86 31.808-102.75 47.224-6.03 3.138-8.37 4.091-14.79 6.254 4.62-12.677 20.31-52.186 26.52-62.321 23.35-11.931 48.82-22.922 72.76-33.625"/><path fill="#eee5d8" d="M777.244 1104c.132.09 1.074.64 1.08 1.02.275 18.28 1.24 40.1-.512 57.96-.212 2.17-5.895 5.44-6.977 5.9-19.046 8.14-50.585 7.75-69.465.69-2.816-1.63-4.98-3.05-7.681-4.88-.654-7.47-.578-14.52-.603-22 27.127-13.52 57.168-25.36 84.158-38.69m-84.229-139.727c25.65-11.635 60.579-27.019 85.354-39.798.509 10.537-.639 40.053 1.023 47.698-6.624 4.641-30.503 13.91-39.806 18.03-15.551 6.887-30.82 14.637-46.285 21.377-.456-15.402-.316-31.856-.286-47.307m84.727 49.867c1.077 4.04.583 39.6.724 47.1-26.699 13.09-57.615 26.99-85.049 39.28-1.053-7.8-.461-38.54-.405-48.04 11.12-4.19 18.422-8.27 29.121-13.14 18.479-8.41 37.236-16.54 55.609-25.2m-84.903-114.402c1.062-12.984-.396-30.76.361-44.456 27.746 14.908 57.404 13.809 85.372.102.05 5.503 1.138 25.688-1.682 28.935-27.857 11.749-56.012 25.239-83.842 37.622-.061-7.405.047-14.809-.209-22.203m553.511-730.047c3.67 3.673 24.63 60.542 29.23 70.646a2222 2222 0 0 1-49.29 22.623c-7.15 3.257-14.18 6.785-21.35 10.111.24-.733.48-1.47.7-2.211 1.61-5.266 4.45-12.327 6.71-17.348 12.26-27.251 22.18-56.567 34-83.821"/><path fill="#f4a259" d="M777.245 1065.96c3.189.31 1.751 28.27 1.75 32.76-27.569 13.54-56.697 25.37-84.311 39.33-3.357-.63-1.775-28.71-1.738-33.39 22.177-9.58 64.335-27.36 84.299-38.7m1.497-178.217c-.205 4.28-.2 28.735.2 32.342-28.461 12.572-57.102 26.631-85.848 39.471a1867 1867 0 0 1-.146-32.539c24.608-10.439 61.749-27.316 85.794-39.274m-1.816 91.235c3.712.77 2.079 25.502 2.071 30.592-25.408 11.79-58.965 27.49-84.267 38.22-3.472-1.56-1.896-26.64-1.824-31.18 28.869-12.22 52.893-26.061 84.02-37.632"/><path fill="#eee5d8" d="M725.686 830.302c.882-.096 4.861-.582 5.787-.028 3.222 1.928-1.213 15.448 2.572 15.957 4.051.545 2.707-13.269 2.764-16.158 10.414.961 34.695 2.62 40.782 13.256 4.916 8.592-12.825 13.26-18.338 15.119-16.057 4.766-49.096 5.155-62.92-6.002-15.599-12.589 21.775-21.045 29.353-22.144"/></svg>